JetBrainsMoro-Regular.ufo
<glyph name="parenleft" format="2">
  <advance width="600"/>
  <unicode hex="0028"/>
  <outline>
    <contour>
      <point x="485" y="-120" type="curve"/>
      <point x="485" y="-31" type="line"/>
      <point x="356" y="-1"/>
      <point x="275" y="115"/>
      <point x="275" y="270" type="curve" smooth="yes"/>
      <point x="275" y="450" type="line" smooth="yes"/>
      <point x="275" y="607"/>
      <point x="357" y="725"/>
      <point x="485" y="755" type="curve"/>
      <point x="485" y="840" type="line"/>
      <point x="300" y="794"/>
      <point x="185" y="645"/>
      <point x="185" y="450" type="curve" smooth="yes"/>
      <point x="185" y="270" type="line" smooth="yes"/>
      <point x="185" y="71"/>
      <point x="296" y="-73"/>
    </contour>
  </outline>
</glyph>
<glyph name="two" format="2">
  <advance width="600"/>
  <unicode hex="0032"/>
  <outline>
    <contour>
      <point x="92" y="0" type="line"/>
      <point x="526" y="0" type="line"/>
      <point x="526" y="82" type="line"/>
      <point x="195" y="82" type="line"/>
      <point x="385" y="288" type="line" smooth="yes"/>
      <point x="475" y="386"/>
      <point x="514" y="458"/>
      <point x="514" y="528" type="curve" smooth="yes"/>
      <point x="514" y="658"/>
      <point x="429" y="740"/>
      <point x="294" y="740" type="curve" smooth="yes"/>
      <point x="162" y="740"/>
      <point x="76" y="657"/>
      <point x="72" y="525" type="curve"/>
      <point x="162" y="525" type="line"/>
      <point x="162" y="608"/>
      <point x="213" y="660"/>
      <point x="294" y="660" type="curve" smooth="yes"/>
      <point x="374" y="660"/>
      <point x="424" y="609"/>
      <point x="424" y="529" type="curve" smooth="yes"/>
      <point x="424" y="473"/>
      <point x="394" y="418"/>
      <point x="325" y="343" type="curve" smooth="yes"/>
      <point x="92" y="89" type="line"/>
    </contour>
  </outline>
</glyph>
<glyph name="E" format="2">
  <advance width="600"/>
  <unicode hex="0045"/>
  <anchor x="320" y="0" name="bottom"/>
  <anchor x="440" y="0" name="ogonek"/>
  <anchor x="320" y="730" name="top"/>
  <anchor x="20" y="730" name="topleft"/>
  <outline>
    <contour>
      <point x="100" y="0" type="line"/>
      <point x="520" y="0" type="line"/>
      <point x="520" y="82" type="line"/>
      <point x="189" y="82" type="line"/>
      <point x="189" y="342" type="line"/>
      <point x="485" y="342" type="line"/>
      <point x="485" y="422" type="line"/>
      <point x="189" y="422" type="line"/>
      <point x="189" y="648" type="line"/>
      <point x="520" y="648" type="line"/>
      <point x="520" y="730" type="line"/>
      <point x="100" y="730" type="line"/>
    </contour>
  </outline>
</glyph>
<glyph name="e" format="2">
  <advance width="600"/>
  <unicode hex="0065"/>
  <anchor x="300" y="0" name="bottom"/>
  <anchor x="350" y="0" name="ogonek"/>
  <anchor x="300" y="550" name="top"/>
  <outline>
    <contour>
      <point x="300" y="-10" type="curve" smooth="yes"/>
      <point x="416" y="-10"/>
      <point x="501" y="48"/>
      <point x="513" y="140" type="curve"/>
      <point x="423" y="140" type="line"/>
      <point x="413" y="91"/>
      <point x="369" y="66"/>
      <point x="300" y="66" type="curve" smooth="yes"/>
      <point x="218" y="66"/>
      <point x="173" y="113"/>
      <point x="173" y="200" type="curve" smooth="yes"/>
      <point x="173" y="253" type="line"/>
      <point x="515" y="253" type="line"/>
      <point x="515" y="350" type="line" smooth="yes"/>
      <point x="515" y="477"/>
      <point x="430" y="560"/>
      <point x="300" y="560" type="curve" smooth="yes"/>
      <point x="170" y="560"/>
      <point x="85" y="477"/>
      <point x="85" y="350" type="curve" smooth="yes"/>
      <point x="85" y="200" type="line" smooth="yes"/>
      <point x="85" y="73"/>
      <point x="170" y="-10"/>
    </contour>
    <contour>
      <point x="427" y="313" type="line"/>
      <point x="434" y="321" type="line"/>
      <point x="173" y="321" type="line"/>
      <point x="173" y="350" type="line" smooth="yes"/>
      <point x="173" y="437"/>
      <point x="218" y="485"/>
      <point x="300" y="485" type="curve" smooth="yes"/>
      <point x="382" y="485"/>
      <point x="427" y="437"/>
      <point x="427" y="350" type="curve" smooth="yes"/>
    </contour>
  </outline>
</glyph>
<glyph name="k" format="2">
  <advance width="600"/>
  <unicode hex="006B"/>
  <anchor x="300" y="0" name="bottom"/>
  <anchor x="300" y="730" name="top"/>
  <outline>
    <contour>
      <point x="95" y="0" type="line"/>
      <point x="185" y="0" type="line"/>
      <point x="185" y="245" type="line"/>
      <point x="292" y="245" type="line"/>
      <point x="452" y="0" type="line"/>
      <point x="557" y="0" type="line"/>
      <point x="369" y="288" type="line"/>
      <point x="554" y="550" type="line"/>
      <point x="451" y="550" type="line"/>
      <point x="291" y="323" type="line"/>
      <point x="185" y="323" type="line"/>
      <point x="185" y="730" type="line"/>
      <point x="95" y="730" type="line"/>
    </contour>
  </outline>
</glyph>
<glyph name="r" format="2">
  <advance width="600"/>
  <unicode hex="0072"/>
  <anchor x="145" y="0" name="bottom"/>
  <anchor x="320" y="550" name="top"/>
  <outline>
    <contour>
      <point x="109" y="0" type="line"/>
      <point x="199" y="0" type="line"/>
      <point x="199" y="350" type="line" smooth="yes"/>
      <point x="199" y="437"/>
      <point x="241" y="482"/>
      <point x="319" y="482" type="curve" smooth="yes"/>
      <point x="400" y="482"/>
      <point x="444" y="434"/>
      <point x="444" y="350" type="curve" smooth="yes"/>
      <point x="444" y="320" type="line"/>
      <point x="534" y="320" type="line"/>
      <point x="534" y="358" type="line" smooth="yes"/>
      <point x="534" y="482"/>
      <point x="460" y="560"/>
      <point x="346" y="560" type="curve" smooth="yes"/>
      <point x="254" y="560"/>
      <point x="199" y="510"/>
      <point x="199" y="424" type="curve"/>
      <point x="218" y="445" type="line"/>
      <point x="199" y="445" type="line"/>
      <point x="199" y="550" type="line"/>
      <point x="109" y="550" type="line"/>
    </contour>
  </outline>
</glyph>
<glyph name="t" format="2">
  <advance width="600"/>
  <unicode hex="0074"/>
  <anchor x="360" y="0" name="bottom"/>
  <anchor x="300" y="275" name="center"/>
  <anchor x="300" y="705" name="top"/>
  <anchor x="580" y="550" name="topright"/>
  <outline>
    <contour>
      <point x="360" y="0" type="curve" smooth="yes"/>
      <point x="510" y="0" type="line"/>
      <point x="510" y="82" type="line"/>
      <point x="360" y="82" type="line" smooth="yes"/>
      <point x="324" y="82"/>
      <point x="300" y="107"/>
      <point x="300" y="145" type="curve" smooth="yes"/>
      <point x="300" y="468" type="line"/>
      <point x="520" y="468" type="line"/>
      <point x="520" y="550" type="line"/>
      <point x="300" y="550" type="line"/>
      <point x="300" y="705" type="line"/>
      <point x="210" y="705" type="line"/>
      <point x="210" y="550" type="line"/>
      <point x="55" y="550" type="line"/>
      <point x="55" y="468" type="line"/>
      <point x="210" y="468" type="line"/>
      <point x="210" y="145" type="line" smooth="yes"/>
      <point x="210" y="57"/>
      <point x="269" y="0"/>
    </contour>
  </outline>
</glyph>
<glyph name="Ccedilla" format="2">
  <advance width="600"/>
  <unicode hex="00C7"/>
  <anchor x="305" y="0" name="_bottom"/>
  <anchor x="305" y="0" name="bottom"/>
  <anchor x="305" y="730" name="top"/>
  <outline>
    <contour>
      <point x="210" y="-203" type="line"/>
      <point x="295" y="-203" type="line" smooth="yes"/>
      <point x="367" y="-203"/>
      <point x="415" y="-166"/>
      <point x="415" y="-120" type="curve" smooth="yes"/>
      <point x="415" y="-68"/>
      <point x="347" y="-41"/>
      <point x="295" y="-35" type="curve"/>
      <point x="316" y="26" type="line"/>
      <point x="259" y="26" type="line"/>
      <point x="224" y="-69" type="line"/>
      <point x="291" y="-69"/>
      <point x="329" y="-89"/>
      <point x="329" y="-112" type="curve" smooth="yes"/>
      <point x="329" y="-130"/>
      <point x="309" y="-148"/>
      <point x="280" y="-148" type="curve" smooth="yes"/>
      <point x="210" y="-148" type="line"/>
    </contour>
    <component base="C"/>
  </outline>
</glyph>
<glyph name="multiply" format="2">
  <advance width="600"/>
  <unicode hex="00D7"/>
  <outline>
    <contour>
      <point x="156" y="136" type="line"/>
      <point x="298" y="278" type="line"/>
      <point x="439" y="136" type="line"/>
      <point x="491" y="188" type="line"/>
      <point x="349" y="329" type="line"/>
      <point x="494" y="474" type="line"/>
      <point x="443" y="526" type="line"/>
      <point x="298" y="381" type="line"/>
      <point x="156" y="522" type="line"/>
      <point x="105" y="471" type="line"/>
      <point x="246" y="329" type="line"/>
      <point x="105" y="188" type="line"/>
    </contour>
  </outline>
</glyph>
<glyph name="Oslash" format="2">
  <advance width="600"/>
  <unicode hex="00D8"/>
  <anchor x="300" y="0" name="bottom"/>
  <anchor x="320" y="730" name="horn"/>
  <anchor x="300" y="730" name="top"/>
  <outline>
    <contour>
      <point x="35" y="-40" type="line"/>
      <point x="119" y="-40" type="line"/>
      <point x="565" y="750" type="line"/>
      <point x="481" y="750" type="line"/>
    </contour>
    <contour>
      <point x="300" y="-10" type="curve" smooth="yes"/>
      <point x="431" y="-10"/>
      <point x="512" y="69"/>
      <point x="512" y="200" type="curve" smooth="yes"/>
      <point x="512" y="531" type="line" smooth="yes"/>
      <point x="512" y="661"/>
      <point x="431" y="740"/>
      <point x="300" y="740" type="curve" smooth="yes"/>
      <point x="169" y="740"/>
      <point x="88" y="661"/>
      <point x="88" y="530" type="curve" smooth="yes"/>
      <point x="88" y="200" type="line" smooth="yes"/>
      <point x="88" y="69"/>
      <point x="169" y="-10"/>
    </contour>
    <contour>
      <point x="300" y="71" type="curve" smooth="yes"/>
      <point x="222" y="71"/>
      <point x="178" y="117"/>
      <point x="178" y="200" type="curve" smooth="yes"/>
      <point x="178" y="530" type="line" smooth="yes"/>
      <point x="178" y="613"/>
      <point x="222" y="659"/>
      <point x="300" y="659" type="curve" smooth="yes"/>
      <point x="378" y="659"/>
      <point x="422" y="613"/>
      <point x="422" y="530" type="curve" smooth="yes"/>
      <point x="422" y="200" type="line" smooth="yes"/>
      <point x="422" y="117"/>
      <point x="378" y="71"/>
    </contour>
  </outline>
</glyph>
<glyph name="oslash" format="2">
  <advance width="600"/>
  <unicode hex="00F8"/>
  <anchor x="300" y="0" name="bottom"/>
  <anchor x="332" y="550" name="horn"/>
  <anchor x="300" y="550" name="top"/>
  <outline>
    <contour>
      <point x="35" y="-30" type="line"/>
      <point x="125" y="-30" type="line"/>
      <point x="565" y="590" type="line"/>
      <point x="474" y="590" type="line"/>
    </contour>
    <contour>
      <point x="300" y="-10" type="curve" smooth="yes"/>
      <point x="431" y="-10"/>
      <point x="512" y="69"/>
      <point x="512" y="200" type="curve" smooth="yes"/>
      <point x="512" y="351" type="line" smooth="yes"/>
      <point x="512" y="481"/>
      <point x="431" y="560"/>
      <point x="300" y="560" type="curve" smooth="yes"/>
      <point x="169" y="560"/>
      <point x="88" y="481"/>
      <point x="88" y="350" type="curve" smooth="yes"/>
      <point x="88" y="200" type="line" smooth="yes"/>
      <point x="88" y="69"/>
      <point x="169" y="-10"/>
    </contour>
    <contour>
      <point x="300" y="70" type="curve" smooth="yes"/>
      <point x="220" y="70"/>
      <point x="173" y="118"/>
      <point x="173" y="200" type="curve" smooth="yes"/>
      <point x="173" y="350" type="line" smooth="yes"/>
      <point x="173" y="432"/>
      <point x="220" y="480"/>
      <point x="300" y="480" type="curve" smooth="yes"/>
      <point x="380" y="480"/>
      <point x="427" y="432"/>
      <point x="427" y="350" type="curve" smooth="yes"/>
      <point x="427" y="200" type="line" smooth="yes"/>
      <point x="427" y="118"/>
      <point x="380" y="70"/>
    </contour>
  </outline>
</glyph>
<glyph name="aogonek" format="2">
  <advance width="600"/>
  <unicode hex="0105"/>
  <anchor x="305" y="0" name="bottom"/>
  <anchor x="465" y="0" name="ogonek"/>
  <anchor x="305" y="550" name="top"/>
  <outline>
    <contour>
      <point x="483" y="-203" type="curve" smooth="yes"/>
      <point x="561" y="-203" type="line"/>
      <point x="561" y="-143" type="line"/>
      <point x="501" y="-143" type="line" smooth="yes"/>
      <point x="467" y="-143"/>
      <point x="446" y="-122"/>
      <point x="446" y="-93" type="curve" smooth="yes"/>
      <point x="446" y="-65"/>
      <point x="465" y="-37"/>
      <point x="510" y="0" type="curve"/>
      <point x="446" y="10" type="line"/>
      <point x="383" y="-34"/>
      <point x="361" y="-72"/>
      <point x="361" y="-110" type="curve" smooth="yes"/>
      <point x="361" y="-164"/>
      <point x="409" y="-203"/>
    </contour>
    <component base="a"/>
  </outline>
</glyph>
<glyph name="iogonek" format="2">
  <advance width="600"/>
  <unicode hex="012F"/>
  <anchor x="315" y="0" name="bottom"/>
  <anchor x="330" y="0" name="ogonek"/>
  <anchor x="315" y="777" name="top"/>
  <outline>
    <contour>
      <point x="322" y="-203" type="curve" smooth="yes"/>
      <point x="400" y="-203" type="line"/>
      <point x="400" y="-143" type="line"/>
      <point x="340" y="-143" type="line" smooth="yes"/>
      <point x="306" y="-143"/>
      <point x="285" y="-122"/>
      <point x="285" y="-93" type="curve" smooth="yes"/>
      <point x="285" y="-65"/>
      <point x="304" y="-36"/>
      <point x="349" y="1" type="curve"/>
      <point x="360" y="10" type="line"/>
      <point x="285" y="10" type="line"/>
      <point x="222" y="-34"/>
      <point x="200" y="-72"/>
      <point x="200" y="-110" type="curve" smooth="yes"/>
      <point x="200" y="-164"/>
      <point x="248" y="-203"/>
    </contour>
    <component base="idotless"/>
    <component base="dotaccentcomb" xOffset="615"/>
  </outline>
</glyph>
<glyph name="Scedilla" format="2">
  <advance width="600"/>
  <unicode hex="015E"/>
  <anchor x="300" y="0" name="_bottom"/>
  <anchor x="300" y="0" name="bottom"/>
  <anchor x="300" y="730" name="top"/>
  <outline>
    <contour>
      <point x="205" y="-203" type="line"/>
      <point x="290" y="-203" type="line" smooth="yes"/>
      <point x="362" y="-203"/>
      <point x="410" y="-166"/>
      <point x="410" y="-120" type="curve" smooth="yes"/>
      <point x="410" y="-68"/>
      <point x="342" y="-41"/>
      <point x="290" y="-35" type="curve"/>
      <point x="311" y="26" type="line"/>
      <point x="254" y="26" type="line"/>
      <point x="219" y="-69" type="line"/>
      <point x="286" y="-69"/>
      <point x="324" y="-89"/>
      <point x="324" y="-112" type="curve" smooth="yes"/>
      <point x="324" y="-130"/>
      <point x="304" y="-148"/>
      <point x="275" y="-148" type="curve" smooth="yes"/>
      <point x="205" y="-148" type="line"/>
    </contour>
    <component base="S"/>
  </outline>
</glyph>
<glyph name="doubleprimemod" format="2">
  <advance width="600"/>
  <unicode hex="02BA"/>
  <outline>
    <contour>
      <point x="330" y="409" type="line"/>
      <point x="410" y="409" type="line"/>
      <point x="540" y="720" type="line"/>
      <point x="410" y="720" type="line"/>
    </contour>
    <contour>
      <point x="55" y="409" type="line"/>
      <point x="135" y="409" type="line"/>
      <point x="265" y="720" type="line"/>
      <point x="135" y="720" type="line"/>
    </contour>
  </outline>
</glyph>
<glyph name="gravecomb" format="2">
  <unicode hex="0300"/>
  <anchor x="-290" y="550" name="_top"/>
  <anchor x="-333" y="785" name="top"/>
  <outline>
    <contour>
      <point x="-323" y="645" type="line"/>
      <point x="-228" y="645" type="line"/>
      <point x="-338" y="785" type="line"/>
      <point x="-438" y="785" type="line"/>
    </contour>
  </outline>
</glyph>
<glyph name="macroncomb" format="2">
  <unicode hex="0304"/>
  <anchor x="-300" y="550" name="_top"/>
  <anchor x="-300" y="745" name="top"/>
  <outline>
    <contour>
      <point x="-460" y="670" type="line"/>
      <point x="-140" y="670" type="line"/>
      <point x="-140" y="745" type="line"/>
      <point x="-460" y="745" type="line"/>
    </contour>
  </outline>
</glyph>
<glyph name="zeta" format="2">
  <advance width="600"/>
  <unicode hex="03B6"/>
  <outline>
    <contour>
      <point x="445" y="-180" type="line"/>
      <point x="535" y="-180" type="line"/>
      <point x="535" y="-48" type="line" smooth="yes"/>
      <point x="535" y="45"/>
      <point x="495" y="80"/>
      <point x="397" y="80" type="curve" smooth="yes"/>
      <point x="270" y="80" type="line" smooth="yes"/>
      <point x="199" y="80"/>
      <point x="158" y="116"/>
      <point x="158" y="174" type="curve" smooth="yes"/>
      <point x="158" y="248"/>
      <point x="220" y="350"/>
      <point x="320" y="452" type="curve" smooth="yes"/>
      <point x="505" y="640" type="line"/>
      <point x="505" y="730" type="line"/>
      <point x="90" y="730" type="line"/>
      <point x="90" y="648" type="line"/>
      <point x="412" y="648" type="line"/>
      <point x="263" y="503" type="line" smooth="yes"/>
      <point x="141" y="385"/>
      <point x="68" y="267"/>
      <point x="68" y="168" type="curve" smooth="yes"/>
      <point x="68" y="68"/>
      <point x="141" y="0"/>
      <point x="269" y="0" type="curve" smooth="yes"/>
      <point x="397" y="0" type="line" smooth="yes"/>
      <point x="431" y="0"/>
      <point x="445" y="-17"/>
      <point x="445" y="-48" type="curve" smooth="yes"/>
    </contour>
  </outline>
</glyph>
<glyph name="Ze-cy" format="2">
  <advance width="600"/>
  <unicode hex="0417"/>
  <outline>
    <contour>
      <point x="289" y="-10" type="curve" smooth="yes"/>
      <point x="434" y="-10"/>
      <point x="530" y="76"/>
      <point x="530" y="205" type="curve" smooth="yes"/>
      <point x="530" y="321"/>
      <point x="455" y="394"/>
      <point x="338" y="392" type="curve"/>
      <point x="338" y="382" type="line"/>
      <point x="445" y="380"/>
      <point x="513" y="444"/>
      <point x="513" y="546" type="curve" smooth="yes"/>
      <point x="513" y="663"/>
      <point x="425" y="740"/>
      <point x="291" y="740" type="curve" smooth="yes"/>
      <point x="153" y="740"/>
      <point x="62" y="658"/>
      <point x="62" y="535" type="curve"/>
      <point x="152" y="535" type="line"/>
      <point x="152" y="610"/>
      <point x="206" y="660"/>
      <point x="288" y="660" type="curve" smooth="yes"/>
      <point x="369" y="660"/>
      <point x="423" y="612"/>
      <point x="423" y="540" type="curve" smooth="yes"/>
      <point x="423" y="468"/>
      <point x="369" y="420"/>
      <point x="288" y="420" type="curve" smooth="yes"/>
      <point x="198" y="420" type="line"/>
      <point x="198" y="340" type="line"/>
      <point x="289" y="340" type="line" smooth="yes"/>
      <point x="379" y="340"/>
      <point x="439" y="286"/>
      <point x="439" y="205" type="curve" smooth="yes"/>
      <point x="439" y="124"/>
      <point x="379" y="70"/>
      <point x="289" y="70" type="curve" smooth="yes"/>
      <point x="204" y="70"/>
      <point x="146" y="119"/>
      <point x="144" y="192" type="curve"/>
      <point x="54" y="192" type="line"/>
      <point x="56" y="71"/>
      <point x="150" y="-10"/>
    </contour>
  </outline>
</glyph>
<glyph name="Che-cy" format="2">
  <advance width="600"/>
  <unicode hex="0427"/>
  <outline>
    <contour>
      <point x="415" y="0" type="line"/>
      <point x="505" y="0" type="line"/>
      <point x="505" y="730" type="line"/>
      <point x="415" y="730" type="line"/>
      <point x="415" y="365" type="line"/>
      <point x="397" y="357"/>
      <point x="342" y="351"/>
      <point x="292" y="351" type="curve" smooth="yes"/>
      <point x="209" y="351"/>
      <point x="165" y="385"/>
      <point x="165" y="451" type="curve" smooth="yes"/>
      <point x="165" y="730" type="line"/>
      <point x="75" y="730" type="line"/>
      <point x="75" y="451" type="line" smooth="yes"/>
      <point x="75" y="333"/>
      <point x="144" y="271"/>
      <point x="277" y="271" type="curve" smooth="yes"/>
      <point x="329" y="271"/>
      <point x="391" y="278"/>
      <point x="415" y="286" type="curve"/>
    </contour>
  </outline>
</glyph>
<glyph name="be-cy" format="2">
  <advance width="600"/>
  <unicode hex="0431"/>
  <outline>
    <contour>
      <point x="302" y="-10" type="curve" smooth="yes"/>
      <point x="434" y="-10"/>
      <point x="517" y="73"/>
      <point x="517" y="205" type="curve" smooth="yes"/>
      <point x="517" y="295" type="line" smooth="yes"/>
      <point x="517" y="424"/>
      <point x="444" y="505"/>
      <point x="328" y="505" type="curve" smooth="yes"/>
      <point x="238" y="505"/>
      <point x="176" y="459"/>
      <point x="175" y="380" type="curve"/>
      <point x="189" y="400" type="line"/>
      <point x="175" y="400" type="line"/>
      <point x="175" y="455" type="line" smooth="yes"/>
      <point x="175" y="569"/>
      <point x="243" y="641"/>
      <point x="347" y="641" type="curve" smooth="yes"/>
      <point x="487" y="641" type="line"/>
      <point x="487" y="730" type="line"/>
      <point x="347" y="730" type="line" smooth="yes"/>
      <point x="187" y="730"/>
      <point x="87" y="624"/>
      <point x="87" y="455" type="curve" smooth="yes"/>
      <point x="87" y="205" type="line" smooth="yes"/>
      <point x="87" y="73"/>
      <point x="170" y="-10"/>
    </contour>
    <contour>
      <point x="302" y="70" type="curve" smooth="yes"/>
      <point x="225" y="70"/>
      <point x="177" y="122"/>
      <point x="177" y="205" type="curve" smooth="yes"/>
      <point x="177" y="295" type="line" smooth="yes"/>
      <point x="177" y="378"/>
      <point x="225" y="430"/>
      <point x="302" y="430" type="curve" smooth="yes"/>
      <point x="379" y="430"/>
      <point x="427" y="378"/>
      <point x="427" y="295" type="curve" smooth="yes"/>
      <point x="427" y="205" type="line" smooth="yes"/>
      <point x="427" y="122"/>
      <point x="379" y="70"/>
    </contour>
  </outline>
</glyph>
<glyph name="ka-cy" format="2">
  <advance width="600"/>
  <unicode hex="043A"/>
  <anchor x="300" y="550" name="top"/>
  <outline>
    <contour>
      <point x="95" y="0" type="line"/>
      <point x="185" y="0" type="line"/>
      <point x="185" y="245" type="line"/>
      <point x="292" y="245" type="line"/>
      <point x="452" y="0" type="line"/>
      <point x="557" y="0" type="line"/>
      <point x="369" y="288" type="line"/>
      <point x="554" y="550" type="line"/>
      <point x="451" y="550" type="line"/>
      <point x="291" y="323" type="line"/>
      <point x="185" y="323" type="line"/>
      <point x="185" y="550" type="line"/>
      <point x="95" y="550" type="line"/>
    </contour>
  </outline>
</glyph>
<glyph name="el-cy" format="2">
  <advance width="600"/>
  <unicode hex="043B"/>
  <outline>
    <contour>
      <point x="25" y="-7" type="line"/>
      <point x="48" y="-7" type="line" smooth="yes"/>
      <point x="165" y="-7"/>
      <point x="213" y="63"/>
      <point x="217" y="238" type="curve" smooth="yes"/>
      <point x="222" y="468" type="line"/>
      <point x="418" y="468" type="line"/>
      <point x="418" y="0" type="line"/>
      <point x="508" y="0" type="line"/>
      <point x="508" y="550" type="line"/>
      <point x="133" y="550" type="line"/>
      <point x="127" y="242" type="line" smooth="yes"/>
      <point x="125" y="118"/>
      <point x="104" y="77"/>
      <point x="43" y="77" type="curve" smooth="yes"/>
      <point x="25" y="77" type="line"/>
    </contour>
  </outline>
</glyph>
<glyph name="shcha-cy" format="2">
  <advance width="600"/>
  <unicode hex="0449"/>
  <outline>
    <contour>
      <point x="495" y="-140" type="line"/>
      <point x="575" y="-140" type="line"/>
      <point x="575" y="76" type="line"/>
      <point x="528" y="76" type="line"/>
      <point x="528" y="550" type="line"/>
      <point x="447" y="550" type="line"/>
      <point x="447" y="76" type="line"/>
      <point x="329" y="76" type="line"/>
      <point x="329" y="550" type="line"/>
      <point x="259" y="550" type="line"/>
      <point x="259" y="76" type="line"/>
      <point x="141" y="76" type="line"/>
      <point x="141" y="550" type="line"/>
      <point x="60" y="550" type="line"/>
      <point x="60" y="0" type="line"/>
      <point x="495" y="0" type="line"/>
    </contour>
  </outline>
</glyph>
<glyph name="lje-cy" format="2">
  <advance width="600"/>
  <unicode hex="0459"/>
  <outline>
    <contour>
      <point x="5" y="-5" type="line"/>
      <point x="20" y="-5" type="line" smooth="yes"/>
      <point x="106" y="-5"/>
      <point x="158" y="73"/>
      <point x="159" y="194" type="curve" smooth="yes"/>
      <point x="162" y="473" type="line"/>
      <point x="278" y="473" type="line"/>
      <point x="278" y="0" type="line"/>
      <point x="418" y="0" type="line" smooth="yes"/>
      <point x="514" y="0"/>
      <point x="578" y="62"/>
      <point x="578" y="154" type="curve" smooth="yes"/>
      <point x="578" y="196" type="line" smooth="yes"/>
      <point x="578" y="288"/>
      <point x="514" y="350"/>
      <point x="418" y="350" type="curve" smooth="yes"/>
      <point x="358" y="350" type="line"/>
      <point x="358" y="550" type="line"/>
      <point x="83" y="550" type="line"/>
      <point x="79" y="194" type="line" smooth="yes"/>
      <point x="78" y="125"/>
      <point x="56" y="80"/>
      <point x="23" y="80" type="curve" smooth="yes"/>
      <point x="5" y="80" type="line"/>
    </contour>
    <contour>
      <point x="358" y="74" type="line"/>
      <point x="358" y="276" type="line"/>
      <point x="418" y="276" type="line" smooth="yes"/>
      <point x="466" y="276"/>
      <point x="498" y="244"/>
      <point x="498" y="196" type="curve" smooth="yes"/>
      <point x="498" y="154" type="line" smooth="yes"/>
      <point x="498" y="106"/>
      <point x="466" y="74"/>
      <point x="418" y="74" type="curve" smooth="yes"/>
    </contour>
  </outline>
</glyph>
<glyph name="Gheupturn-cy" format="2">
  <advance width="600"/>
  <unicode hex="0490"/>
  <outline>
    <contour>
      <point x="130" y="0" type="line"/>
      <point x="220" y="0" type="line"/>
      <point x="220" y="648" type="line"/>
      <point x="555" y="648" type="line"/>
      <point x="555" y="825" type="line"/>
      <point x="470" y="825" type="line"/>
      <point x="470" y="730" type="line"/>
      <point x="130" y="730" type="line"/>
    </contour>
  </outline>
</glyph>
<glyph name="kadescender-cy" format="2">
  <advance width="600"/>
  <unicode hex="049B"/>
  <outline>
    <contour>
      <point x="92" y="0" type="line"/>
      <point x="182" y="0" type="line"/>
      <point x="182" y="245" type="line"/>
      <point x="281" y="245" type="line"/>
      <point x="441" y="0" type="line"/>
      <point x="546" y="0" type="line"/>
      <point x="358" y="288" type="line"/>
      <point x="543" y="550" type="line"/>
      <point x="440" y="550" type="line"/>
      <point x="280" y="323" type="line"/>
      <point x="182" y="323" type="line"/>
      <point x="182" y="550" type="line"/>
      <point x="92" y="550" type="line"/>
    </contour>
    <contour>
      <point x="490" y="-140" type="line"/>
      <point x="570" y="-140" type="line"/>
      <point x="570" y="80" type="line"/>
      <point x="490" y="80" type="line"/>
    </contour>
  </outline>
</glyph>
<glyph name="endash" format="2">
  <advance width="600"/>
  <unicode hex="2013"/>
  <outline>
    <contour>
      <point x="80" y="290" type="line"/>
      <point x="520" y="290" type="line"/>
      <point x="520" y="370" type="line"/>
      <point x="80" y="370" type="line"/>
    </contour>
  </outline>
</glyph>
<glyph name="bracketrightwithquill" format="2">
  <advance width="600"/>
  <unicode hex="2046"/>
  <outline>
    <contour>
      <point x="395" y="-110" type="line"/>
      <point x="395" y="830" type="line"/>
      <point x="150" y="830" type="line"/>
      <point x="150" y="750" type="line"/>
      <point x="305" y="750" type="line"/>
      <point x="305" y="415" type="line"/>
      <point x="150" y="415" type="line"/>
      <point x="150" y="335" type="line"/>
      <point x="305" y="335" type="line"/>
      <point x="305" y="-30" type="line"/>
      <point x="155" y="-30" type="line"/>
      <point x="155" y="-110" type="line"/>
    </contour>
  </outline>
</glyph>
<glyph name="bitcoin" format="2">
  <advance width="600"/>
  <unicode hex="20BF"/>
  <outline>
    <contour>
      <point x="179" y="-140" type="line"/>
      <point x="239" y="-140" type="line"/>
      <point x="239" y="0" type="line"/>
      <point x="309" y="0" type="line"/>
      <point x="309" y="-140" type="line"/>
      <point x="369" y="-140" type="line"/>
      <point x="369" y="5" type="line"/>
      <point x="470" y="23"/>
      <point x="530" y="96"/>
      <point x="530" y="203" type="curve" smooth="yes"/>
      <point x="530" y="297"/>
      <point x="482" y="364"/>
      <point x="403" y="386" type="curve"/>
      <point x="472" y="405"/>
      <point x="513" y="462"/>
      <point x="513" y="541" type="curve" smooth="yes"/>
      <point x="513" y="637"/>
      <point x="460" y="702"/>
      <point x="369" y="723" type="curve"/>
      <point x="369" y="871" type="line"/>
      <point x="309" y="871" type="line"/>
      <point x="309" y="730" type="line"/>
      <point x="239" y="730" type="line"/>
      <point x="239" y="871" type="line"/>
      <point x="179" y="871" type="line"/>
      <point x="179" y="730" type="line"/>
      <point x="93" y="730" type="line"/>
      <point x="93" y="0" type="line"/>
      <point x="179" y="0" type="line"/>
    </contour>
    <contour>
      <point x="181" y="81" type="line"/>
      <point x="181" y="341" type="line"/>
      <point x="305" y="341" type="line" smooth="yes"/>
      <point x="389" y="341"/>
      <point x="441" y="286"/>
      <point x="441" y="206" type="curve" smooth="yes"/>
      <point x="441" y="129"/>
      <point x="389" y="81"/>
      <point x="305" y="81" type="curve" smooth="yes"/>
    </contour>
    <contour>
      <point x="181" y="419" type="line"/>
      <point x="181" y="649" type="line"/>
      <point x="300" y="649" type="line" smooth="yes"/>
      <point x="377" y="649"/>
      <point x="424" y="605"/>
      <point x="424" y="534" type="curve" smooth="yes"/>
      <point x="424" y="463"/>
      <point x="376" y="419"/>
      <point x="299" y="419" type="curve" smooth="yes"/>
    </contour>
  </outline>
</glyph>
<glyph name="southEastArrow" format="2">
  <advance width="600"/>
  <unicode hex="2198"/>
  <outline>
    <contour>
      <point x="140" y="75" type="line"/>
      <point x="555" y="75" type="line"/>
      <point x="555" y="490" type="line"/>
      <point x="475" y="490" type="line"/>
      <point x="475" y="291" type="line" smooth="yes"/>
      <point x="475" y="258"/>
      <point x="480" y="223"/>
      <point x="483" y="206" type="curve"/>
      <point x="476" y="204" type="line"/>
      <point x="466" y="218"/>
      <point x="445" y="243"/>
      <point x="426" y="262" type="curve" smooth="yes"/>
      <point x="71" y="620" type="line"/>
      <point x="10" y="557" type="line"/>
      <point x="363" y="201" type="line" smooth="yes"/>
      <point x="381" y="183"/>
      <point x="404" y="164"/>
      <point x="416" y="155" type="curve"/>
      <point x="415" y="148" type="line"/>
      <point x="400" y="150"/>
      <point x="368" y="153"/>
      <point x="335" y="153" type="curve" smooth="yes"/>
      <point x="140" y="153" type="line"/>
    </contour>
  </outline>
</glyph>
<glyph name="rightDoublePairedArrow" format="2">
  <advance width="600"/>
  <unicode hex="21C9"/>
  <outline>
    <contour>
      <point x="452" y="-39" type="line"/>
      <point x="556" y="-39" type="line"/>
      <point x="680" y="120" type="line"/>
      <point x="556" y="279" type="line"/>
      <point x="680" y="435" type="line"/>
      <point x="556" y="594" type="line"/>
      <point x="452" y="594" type="line"/>
      <point x="505" y="526" type="line" smooth="yes"/>
      <point x="522" y="504"/>
      <point x="541" y="487"/>
      <point x="550" y="479" type="curve"/>
      <point x="550" y="470" type="line"/>
      <point x="533" y="472"/>
      <point x="502" y="475"/>
      <point x="480" y="475" type="curve" smooth="yes"/>
      <point x="-80" y="475" type="line"/>
      <point x="-80" y="395" type="line"/>
      <point x="480" y="395" type="line" smooth="yes"/>
      <point x="502" y="395"/>
      <point x="533" y="397"/>
      <point x="550" y="399" type="curve"/>
      <point x="550" y="390" type="line"/>
      <point x="538" y="381"/>
      <point x="518" y="361"/>
      <point x="505" y="345" type="curve" smooth="yes"/>
      <point x="452" y="279" type="line"/>
      <point x="505" y="211" type="line" smooth="yes"/>
      <point x="521" y="190"/>
      <point x="541" y="172"/>
      <point x="550" y="164" type="curve"/>
      <point x="550" y="155" type="line"/>
      <point x="533" y="157"/>
      <point x="502" y="160"/>
      <point x="480" y="160" type="curve" smooth="yes"/>
      <point x="-80" y="160" type="line"/>
      <point x="-80" y="80" type="line"/>
      <point x="480" y="80" type="line" smooth="yes"/>
      <point x="502" y="80"/>
      <point x="533" y="82"/>
      <point x="550" y="84" type="curve"/>
      <point x="550" y="75" type="line"/>
      <point x="538" y="66"/>
      <point x="517" y="46"/>
      <point x="505" y="30" type="curve" smooth="yes"/>
    </contour>
  </outline>
</glyph>
<glyph name="universal" format="2">
  <advance width="600"/>
  <unicode hex="2200"/>
  <outline>
    <contour>
      <point x="239" y="0" type="line"/>
      <point x="360" y="0" type="line"/>
      <point x="550" y="730" type="line"/>
      <point x="458" y="730" type="line"/>
      <point x="336" y="234" type="line" smooth="yes"/>
      <point x="319" y="165"/>
      <point x="306" y="100"/>
      <point x="300" y="70" type="curve"/>
      <point x="294" y="100"/>
      <point x="281" y="166"/>
      <point x="264" y="235" type="curve" smooth="yes"/>
      <point x="141" y="730" type="line"/>
      <point x="50" y="730" type="line"/>
    </contour>
    <contour>
      <point x="161" y="452" type="line"/>
      <point x="431" y="452" type="line"/>
      <point x="431" y="528" type="line"/>
      <point x="161" y="528" type="line"/>
    </contour>
  </outline>
</glyph>
<glyph name="excess" format="2">
  <advance width="600"/>
  <unicode hex="2239"/>
  <outline>
    <contour>
      <point x="0" y="290" type="line"/>
      <point x="350" y="290" type="line"/>
      <point x="350" y="370" type="line"/>
      <point x="0" y="370" type="line"/>
    </contour>
    <contour>
      <point x="520" y="105" type="curve" smooth="yes"/>
      <point x="568" y="105"/>
      <point x="600" y="135"/>
      <point x="600" y="180" type="curve" smooth="yes"/>
      <point x="600" y="225"/>
      <point x="568" y="255"/>
      <point x="520" y="255" type="curve" smooth="yes"/>
      <point x="472" y="255"/>
      <point x="440" y="225"/>
      <point x="440" y="180" type="curve" smooth="yes"/>
      <point x="440" y="135"/>
      <point x="472" y="105"/>
    </contour>
    <contour>
      <point x="520" y="405" type="curve" smooth="yes"/>
      <point x="568" y="405"/>
      <point x="600" y="435"/>
      <point x="600" y="480" type="curve" smooth="yes"/>
      <point x="600" y="525"/>
      <point x="568" y="555"/>
      <point x="520" y="555" type="curve" smooth="yes"/>
      <point x="472" y="555"/>
      <point x="440" y="525"/>
      <point x="440" y="480" type="curve" smooth="yes"/>
      <point x="440" y="435"/>
      <point x="472" y="405"/>
    </contour>
  </outline>
</glyph>
<glyph name="congruent" format="2">
  <advance width="600"/>
  <unicode hex="2245"/>
  <outline>
    <contour>
      <point x="70" y="76" type="line"/>
      <point x="530" y="76" type="line"/>
      <point x="530" y="152" type="line"/>
      <point x="70" y="152" type="line"/>
    </contour>
    <contour>
      <point x="70" y="292" type="line"/>
      <point x="530" y="292" type="line"/>
      <point x="530" y="368" type="line"/>
      <point x="70" y="368" type="line"/>
    </contour>
    <component base="asciitilde" yOffset="215"/>
  </outline>
</glyph>
<glyph name="muchgreater" format="2">
  <advance width="600"/>
  <unicode hex="226B"/>
  <outline>
    <contour>
      <point x="270" y="65" type="line"/>
      <point x="600" y="293" type="line"/>
      <point x="600" y="371" type="line"/>
      <point x="270" y="595" type="line"/>
      <point x="270" y="509" type="line"/>
      <point x="480" y="366" type="line" smooth="yes"/>
      <point x="502" y="351"/>
      <point x="527" y="336"/>
      <point x="540" y="331" type="curve"/>
      <point x="527" y="326"/>
      <point x="503" y="314"/>
      <point x="480" y="298" type="curve" smooth="yes"/>
      <point x="270" y="148" type="line"/>
    </contour>
    <contour>
      <point x="0" y="65" type="line"/>
      <point x="330" y="293" type="line"/>
      <point x="330" y="371" type="line"/>
      <point x="0" y="595" type="line"/>
      <point x="0" y="509" type="line"/>
      <point x="210" y="366" type="line" smooth="yes"/>
      <point x="232" y="351"/>
      <point x="257" y="336"/>
      <point x="270" y="331" type="curve"/>
      <point x="257" y="326"/>
      <point x="233" y="314"/>
      <point x="210" y="298" type="curve" smooth="yes"/>
      <point x="0" y="148" type="line"/>
    </contour>
  </outline>
</glyph>
<glyph name="lessorequivalent" format="2">
  <advance width="600"/>
  <unicode hex="2272"/>
  <outline>
    <contour>
      <point x="65" y="0" type="line"/>
      <point x="150" y="0" type="line"/>
      <point x="150" y="23" type="line" smooth="yes"/>
      <point x="150" y="52"/>
      <point x="168" y="70"/>
      <point x="197" y="70" type="curve" smooth="yes"/>
      <point x="254" y="70"/>
      <point x="312" y="0"/>
      <point x="405" y="0" type="curve" smooth="yes"/>
      <point x="484" y="0"/>
      <point x="535" y="51"/>
      <point x="535" y="130" type="curve" smooth="yes"/>
      <point x="535" y="145" type="line"/>
      <point x="450" y="145" type="line"/>
      <point x="450" y="122" type="line" smooth="yes"/>
      <point x="450" y="93"/>
      <point x="432" y="75"/>
      <point x="403" y="75" type="curve" smooth="yes"/>
      <point x="345" y="75"/>
      <point x="287" y="145"/>
      <point x="195" y="145" type="curve" smooth="yes"/>
      <point x="116" y="145"/>
      <point x="65" y="94"/>
      <point x="65" y="15" type="curve" smooth="yes"/>
    </contour>
    <component base="less" yOffset="125"/>
  </outline>
</glyph>
<glyph name="greaterorequivalent" format="2">
  <advance width="600"/>
  <unicode hex="2273"/>
  <outline>
    <contour>
      <point x="80" y="0" type="line"/>
      <point x="165" y="0" type="line"/>
      <point x="165" y="28" type="line" smooth="yes"/>
      <point x="165" y="57"/>
      <point x="183" y="75"/>
      <point x="212" y="75" type="curve" smooth="yes"/>
      <point x="269" y="75"/>
      <point x="297" y="-5"/>
      <point x="390" y="-5" type="curve" smooth="yes"/>
      <point x="469" y="-5"/>
      <point x="520" y="46"/>
      <point x="520" y="125" type="curve" smooth="yes"/>
      <point x="520" y="145" type="line"/>
      <point x="435" y="145" type="line"/>
      <point x="435" y="117" type="line" smooth="yes"/>
      <point x="435" y="88"/>
      <point x="417" y="70"/>
      <point x="388" y="70" type="curve" smooth="yes"/>
      <point x="330" y="70"/>
      <point x="302" y="150"/>
      <point x="210" y="150" type="curve" smooth="yes"/>
      <point x="131" y="150"/>
      <point x="80" y="99"/>
      <point x="80" y="20" type="curve" smooth="yes"/>
    </contour>
    <component base="greater" yOffset="125"/>
  </outline>
</glyph>
<glyph name="succeeds" format="2">
  <advance width="600"/>
  <unicode hex="227B"/>
  <outline>
    <contour>
      <point x="80" y="55" type="curve"/>
      <point x="170" y="55" type="line"/>
      <point x="187" y="192"/>
      <point x="335" y="280"/>
      <point x="545" y="280" type="curve"/>
      <point x="545" y="380" type="line"/>
      <point x="335" y="380"/>
      <point x="187" y="466"/>
      <point x="170" y="600" type="curve"/>
      <point x="80" y="600" type="line"/>
      <point x="98" y="442"/>
      <point x="236" y="338"/>
      <point x="432" y="334" type="curve"/>
      <point x="432" y="336" type="line"/>
      <point x="236" y="330"/>
      <point x="98" y="220"/>
    </contour>
  </outline>
</glyph>
<glyph name="precedesorequalto" format="2">
  <advance width="600"/>
  <unicode hex="227C"/>
  <outline>
    <contour>
      <point x="55" y="0" type="line"/>
      <point x="515" y="0" type="line"/>
      <point x="515" y="80" type="line"/>
      <point x="55" y="80" type="line"/>
    </contour>
    <component base="precedes" yOffset="125"/>
  </outline>
</glyph>
<glyph name="squareimageof" format="2">
  <advance width="600"/>
  <unicode hex="228F"/>
  <outline>
    <contour>
      <point x="35" y="90" type="line"/>
      <point x="570" y="90" type="line"/>
      <point x="570" y="172" type="line"/>
      <point x="125" y="172" type="line"/>
      <point x="125" y="488" type="line"/>
      <point x="570" y="488" type="line"/>
      <point x="570" y="570" type="line"/>
      <point x="35" y="570" type="line"/>
    </contour>
  </outline>
</glyph>
<glyph name="fraction.circled" format="2">
  <advance width="600"/>
  <unicode hex="2298"/>
  <outline>
    <contour>
      <point x="300" y="20" type="curve" smooth="yes"/>
      <point x="477" y="20"/>
      <point x="610" y="153"/>
      <point x="610" y="330" type="curve" smooth="yes"/>
      <point x="610" y="507"/>
      <point x="477" y="640"/>
      <point x="300" y="640" type="curve" smooth="yes"/>
      <point x="123" y="640"/>
      <point x="-10" y="507"/>
      <point x="-10" y="330" type="curve" smooth="yes"/>
      <point x="-10" y="153"/>
      <point x="123" y="20"/>
    </contour>
    <contour>
      <point x="300" y="70" type="curve" smooth="yes"/>
      <point x="152" y="70"/>
      <point x="40" y="182"/>
      <point x="40" y="330" type="curve" smooth="yes"/>
      <point x="40" y="478"/>
      <point x="152" y="590"/>
      <point x="300" y="590" type="curve" smooth="yes"/>
      <point x="448" y="590"/>
      <point x="560" y="478"/>
      <point x="560" y="330" type="curve" smooth="yes"/>
      <point x="560" y="182"/>
      <point x="448" y="70"/>
    </contour>
    <contour>
      <point x="116" y="116" type="line"/>
      <point x="163" y="81" type="line"/>
      <point x="481" y="556" type="line"/>
      <point x="429" y="584" type="line"/>
    </contour>
  </outline>
</glyph>
<glyph name="doublesubset" format="2">
  <advance width="600"/>
  <unicode hex="22D0"/>
  <outline>
    <contour>
      <point x="280" y="70" type="curve" smooth="yes"/>
      <point x="565" y="70" type="line"/>
      <point x="565" y="140" type="line"/>
      <point x="280" y="140" type="line" smooth="yes"/>
      <point x="180" y="140"/>
      <point x="115" y="207"/>
      <point x="115" y="310" type="curve" smooth="yes"/>
      <point x="115" y="410" type="line" smooth="yes"/>
      <point x="115" y="513"/>
      <point x="180" y="580"/>
      <point x="280" y="580" type="curve" smooth="yes"/>
      <point x="565" y="580" type="line"/>
      <point x="565" y="650" type="line"/>
      <point x="280" y="650" type="line" smooth="yes"/>
      <point x="131" y="650"/>
      <point x="35" y="555"/>
      <point x="35" y="410" type="curve" smooth="yes"/>
      <point x="35" y="310" type="line" smooth="yes"/>
      <point x="35" y="165"/>
      <point x="131" y="70"/>
    </contour>
    <contour>
      <point x="321" y="225" type="curve" smooth="yes"/>
      <point x="565" y="225" type="line"/>
      <point x="565" y="295" type="line"/>
      <point x="331" y="295" type="line" smooth="yes"/>
      <point x="300" y="295"/>
      <point x="281" y="314"/>
      <point x="281" y="345" type="curve" smooth="yes"/>
      <point x="281" y="375" type="line" smooth="yes"/>
      <point x="281" y="406"/>
      <point x="300" y="425"/>
      <point x="331" y="425" type="curve" smooth="yes"/>
      <point x="565" y="425" type="line"/>
      <point x="565" y="495" type="line"/>
      <point x="321" y="495" type="line" smooth="yes"/>
      <point x="246" y="495"/>
      <point x="201" y="452"/>
      <point x="201" y="380" type="curve" smooth="yes"/>
      <point x="201" y="340" type="line" smooth="yes"/>
      <point x="201" y="268"/>
      <point x="246" y="225"/>
    </contour>
  </outline>
</glyph>
<glyph name="leftCeiling" format="2">
  <advance width="600"/>
  <unicode hex="2308"/>
  <outline>
    <contour>
      <point x="205" y="-110" type="line"/>
      <point x="295" y="-110" type="line"/>
      <point x="295" y="750" type="line"/>
      <point x="450" y="750" type="line"/>
      <point x="450" y="830" type="line"/>
      <point x="205" y="830" type="line"/>
    </contour>
  </outline>
</glyph>
<glyph name="rightFloor" format="2">
  <advance width="600"/>
  <unicode hex="230B"/>
  <outline>
    <contour>
      <point x="150" y="-110" type="line"/>
      <point x="395" y="-110" type="line"/>
      <point x="395" y="830" type="line"/>
      <point x="305" y="830" type="line"/>
      <point x="305" y="-30" type="line"/>
      <point x="150" y="-30" type="line"/>
    </contour>
  </outline>
</glyph>
<glyph name="propellor" format="2">
  <advance width="600"/>
  <unicode hex="2318"/>
  <outline>
    <contour>
      <point x="474" y="339" type="line"/>
      <point x="541" y="339"/>
      <point x="585" y="383"/>
      <point x="585" y="450" type="curve" smooth="yes"/>
      <point x="585" y="516"/>
      <point x="541" y="560"/>
      <point x="474" y="560" type="curve" smooth="yes"/>
      <point x="408" y="560"/>
      <point x="364" y="516"/>
      <point x="364" y="450" type="curve"/>
      <point x="431" y="450" type="line"/>
      <point x="431" y="476"/>
      <point x="448" y="493"/>
      <point x="474" y="493" type="curve" smooth="yes"/>
      <point x="501" y="493"/>
      <point x="518" y="476"/>
      <point x="518" y="450" type="curve" smooth="yes"/>
      <point x="518" y="423"/>
      <point x="501" y="406"/>
      <point x="474" y="406" type="curve"/>
    </contour>
    <contour>
      <point x="125" y="-10" type="curve" smooth="yes"/>
      <point x="192" y="-10"/>
      <point x="236" y="34"/>
      <point x="236" y="101" type="curve"/>
      <point x="169" y="101" type="line"/>
      <point x="169" y="74"/>
      <point x="152" y="57"/>
      <point x="125" y="57" type="curve" smooth="yes"/>
      <point x="99" y="57"/>
      <point x="82" y="74"/>
      <point x="82" y="101" type="curve" smooth="yes"/>
      <point x="82" y="127"/>
      <point x="99" y="144"/>
      <point x="125" y="144" type="curve"/>
      <point x="125" y="211" type="line"/>
      <point x="59" y="211"/>
      <point x="15" y="167"/>
      <point x="15" y="101" type="curve" smooth="yes"/>
      <point x="15" y="34"/>
      <point x="59" y="-10"/>
    </contour>
    <contour>
      <point x="169" y="101" type="line"/>
      <point x="236" y="101" type="line"/>
      <point x="236" y="450" type="line"/>
      <point x="169" y="450" type="line"/>
    </contour>
    <contour>
      <point x="125" y="144" type="line"/>
      <point x="474" y="144" type="line"/>
      <point x="474" y="211" type="line"/>
      <point x="125" y="211" type="line"/>
    </contour>
    <contour>
      <point x="474" y="-10" type="curve" smooth="yes"/>
      <point x="541" y="-10"/>
      <point x="585" y="34"/>
      <point x="585" y="101" type="curve" smooth="yes"/>
      <point x="585" y="167"/>
      <point x="541" y="211"/>
      <point x="474" y="211" type="curve"/>
      <point x="474" y="144" type="line"/>
      <point x="501" y="144"/>
      <point x="518" y="127"/>
      <point x="518" y="101" type="curve" smooth="yes"/>
      <point x="518" y="74"/>
      <point x="501" y="57"/>
      <point x="474" y="57" type="curve" smooth="yes"/>
      <point x="448" y="57"/>
      <point x="431" y="74"/>
      <point x="431" y="101" type="curve"/>
      <point x="364" y="101" type="line"/>
      <point x="364" y="34"/>
      <point x="408" y="-10"/>
    </contour>
    <contour>
      <point x="125" y="339" type="curve"/>
      <point x="125" y="406" type="line"/>
      <point x="99" y="406"/>
      <point x="82" y="423"/>
      <point x="82" y="450" type="curve" smooth="yes"/>
      <point x="82" y="476"/>
      <point x="99" y="493"/>
      <point x="125" y="493" type="curve" smooth="yes"/>
      <point x="152" y="493"/>
      <point x="169" y="476"/>
      <point x="169" y="450" type="curve"/>
      <point x="236" y="450" type="line"/>
      <point x="236" y="516"/>
      <point x="192" y="560"/>
      <point x="125" y="560" type="curve" smooth="yes"/>
      <point x="59" y="560"/>
      <point x="15" y="516"/>
      <point x="15" y="450" type="curve" smooth="yes"/>
      <point x="15" y="383"/>
      <point x="59" y="339"/>
    </contour>
    <contour>
      <point x="125" y="339" type="line"/>
      <point x="474" y="339" type="line"/>
      <point x="474" y="406" type="line"/>
      <point x="125" y="406" type="line"/>
    </contour>
    <contour>
      <point x="364" y="101" type="line"/>
      <point x="431" y="101" type="line"/>
      <point x="431" y="450" type="line"/>
      <point x="364" y="450" type="line"/>
    </contour>
  </outline>
</glyph>
<glyph name="parenleftextension" format="2">
  <advance width="600"/>
  <unicode hex="239C"/>
  <outline>
    <contour>
      <point x="255" y="-300" type="line"/>
      <point x="345" y="-300" type="line"/>
      <point x="345" y="1020" type="line"/>
      <point x="255" y="1020" type="line"/>
    </contour>
  </outline>
</glyph>
<glyph name="boxUpLightAndRightHeavy" format="2">
  <advance width="600"/>
  <unicode hex="2515"/>
  <outline>
    <contour>
      <point x="250" y="270" type="line"/>
      <point x="620" y="270" type="line"/>
      <point x="620" y="470" type="line"/>
      <point x="350" y="470" type="line"/>
      <point x="350" y="1120" type="line"/>
      <point x="250" y="1120" type="line"/>
    </contour>
  </outline>
</glyph>
<glyph name="boxDownHeavyAndRightUpLight" format="2">
  <advance width="600"/>
  <unicode hex="251F"/>
  <outline>
    <contour>
      <point x="200" y="-400" type="line"/>
      <point x="400" y="-400" type="line"/>
      <point x="400" y="320" type="line"/>
      <point x="620" y="320" type="line"/>
      <point x="620" y="420" type="line"/>
      <point x="350" y="420" type="line"/>
      <point x="350" y="1120" type="line"/>
      <point x="250" y="1120" type="line"/>
      <point x="250" y="420" type="line"/>
      <point x="200" y="420" type="line"/>
    </contour>
  </outline>
</glyph>
<glyph name="boxUpLightAndHorizontalHeavy" format="2">
  <advance width="600"/>
  <unicode hex="2537"/>
  <outline>
    <contour>
      <point x="-20" y="270" type="line"/>
      <point x="620" y="270" type="line"/>
      <point x="620" y="470" type="line"/>
      <point x="350" y="470" type="line"/>
      <point x="350" y="1120" type="line"/>
      <point x="250" y="1120" type="line"/>
      <point x="250" y="470" type="line"/>
      <point x="-20" y="470" type="line"/>
    </contour>
  </outline>
</glyph>
<glyph name="boxDoubleVertical" format="2">
  <advance width="600"/>
  <unicode hex="2551"/>
  <outline>
    <contour>
      <point x="350" y="-400" type="line"/>
      <point x="450" y="-400" type="line"/>
      <point x="450" y="1120" type="line"/>
      <point x="350" y="1120" type="line"/>
    </contour>
    <contour>
      <point x="150" y="-400" type="line"/>
      <point x="250" y="-400" type="line"/>
      <point x="250" y="1120" type="line"/>
      <point x="150" y="1120" type="line"/>
    </contour>
  </outline>
</glyph>
<glyph name="boxDownSingleAndLeftDouble" format="2">
  <advance width="600"/>
  <unicode hex="2555"/>
  <outline>
    <contour>
      <point x="250" y="-400" type="line"/>
      <point x="350" y="-400" type="line"/>
      <point x="350" y="520" type="line"/>
      <point x="-20" y="520" type="line"/>
      <point x="-20" y="420" type="line"/>
      <point x="250" y="420" type="line"/>
      <point x="250" y="320" type="line"/>
      <point x="-20" y="320" type="line"/>
      <point x="-20" y="220" type="line"/>
      <point x="250" y="220" type="line"/>
    </contour>
  </outline>
</glyph>
<glyph name="boxDownDoubleAndHorizontalSingle" format="2">
  <advance width="600"/>
  <unicode hex="2565"/>
  <outline>
    <contour>
      <point x="150" y="-400" type="line"/>
      <point x="250" y="-400" type="line"/>
      <point x="250" y="320" type="line"/>
      <point x="350" y="320" type="line"/>
      <point x="350" y="-400" type="line"/>
      <point x="450" y="-400" type="line"/>
      <point x="450" y="320" type="line"/>
      <point x="620" y="320" type="line"/>
      <point x="620" y="420" type="line"/>
      <point x="-20" y="420" type="line"/>
      <point x="-20" y="320" type="line"/>
      <point x="150" y="320" type="line"/>
    </contour>
  </outline>
</glyph>
<glyph name="boxLightArcUpAndLeft" format="2">
  <advance width="600"/>
  <unicode hex="256F"/>
  <outline>
    <contour>
      <point x="-20" y="320" type="line"/>
      <point x="15" y="320" type="line" smooth="yes"/>
      <point x="218" y="320"/>
      <point x="350" y="454"/>
      <point x="350" y="660" type="curve" smooth="yes"/>
      <point x="350" y="1120" type="line"/>
      <point x="250" y="1120" type="line"/>
      <point x="250" y="660" type="line" smooth="yes"/>
      <point x="250" y="514"/>
      <point x="158" y="420"/>
      <point x="15" y="420" type="curve" smooth="yes"/>
      <point x="-20" y="420" type="line"/>
    </contour>
  </outline>
</glyph>
<glyph name="boxHeavyLeftAndLightRight" format="2">
  <advance width="600"/>
  <unicode hex="257E"/>
  <outline>
    <contour>
      <point x="-20" y="270" type="line"/>
      <point x="350" y="270" type="line"/>
      <point x="350" y="320" type="line"/>
      <point x="620" y="320" type="line"/>
      <point x="620" y="420" type="line"/>
      <point x="350" y="420" type="line"/>
      <point x="350" y="470" type="line"/>
      <point x="-20" y="470" type="line"/>
    </contour>
  </outline>
</glyph>
<glyph name="rightWhiteSmallTriangle" format="2">
  <advance width="600"/>
  <unicode hex="25B9"/>
  <outline>
    <contour>
      <point x="150" y="210" type="line"/>
      <point x="460" y="360" type="line"/>
      <point x="150" y="510" type="line"/>
    </contour>
    <contour>
      <point x="190" y="274" type="line"/>
      <point x="190" y="446" type="line"/>
      <point x="368" y="360" type="line"/>
    </contour>
  </outline>
</glyph>
<glyph name="rightWhitePointer" format="2">
  <advance width="600"/>
  <unicode hex="25BB"/>
  <outline>
    <contour>
      <point x="0" y="210" type="line"/>
      <point x="610" y="360" type="line"/>
      <point x="0" y="510" type="line"/>
    </contour>
    <contour>
      <point x="50" y="274" type="line"/>
      <point x="50" y="446" type="line"/>
      <point x="448" y="360" type="line"/>
    </contour>
  </outline>
</glyph>
<glyph name="ballotX" format="2">
  <advance width="600"/>
  <unicode hex="2717"/>
  <outline>
    <contour>
      <point x="89" y="92" type="line"/>
      <point x="299" y="303" type="line"/>
      <point x="511" y="91" type="line"/>
      <point x="569" y="149" type="line"/>
      <point x="357" y="361" type="line"/>
      <point x="568" y="571" type="line"/>
      <point x="511" y="628" type="line"/>
      <point x="301" y="417" type="line"/>
      <point x="89" y="629" type="line"/>
      <point x="31" y="571" type="line"/>
      <point x="243" y="359" type="line"/>
      <point x="32" y="149" type="line"/>
    </contour>
  </outline>
</glyph>
<glyph name="uniE0B0" format="2">
  <advance width="600"/>
  <unicode hex="E0B0"/>
  <outline>
    <contour>
      <point x="10" y="-300" type="line"/>
      <point x="600" y="360" type="line"/>
      <point x="10" y="1020" type="line"/>
      <point x="-40" y="1020" type="line"/>
      <point x="-40" y="-300" type="line"/>
    </contour>
  </outline>
</glyph>
<glyph name="A.half" format="2">
  <advance width="400"/>
  <outline>
    <contour>
      <point x="227" y="206" type="curve" smooth="yes"/>
      <point x="316" y="0" type="line"/>
      <point x="385" y="0" type="line"/>
      <point x="237" y="335" type="line"/>
      <point x="163" y="335" type="line"/>
      <point x="15" y="0" type="line"/>
      <point x="85" y="0" type="line"/>
      <point x="171" y="206" type="line" smooth="yes"/>
      <point x="181" y="231"/>
      <point x="196" y="262"/>
      <point x="199" y="280" type="curve"/>
      <point x="202" y="262"/>
      <point x="216" y="231"/>
    </contour>
    <contour>
      <point x="105" y="124" type="line"/>
      <point x="105" y="65" type="line"/>
      <point x="293" y="65" type="line"/>
      <point x="293" y="124" type="line"/>
    </contour>
  </outline>
</glyph>
<glyph name="H.half" format="2">
  <advance width="400"/>
  <outline>
    <contour>
      <point x="45" y="0" type="line"/>
      <point x="111" y="0" type="line"/>
      <point x="111" y="143" type="line"/>
      <point x="289" y="143" type="line"/>
      <point x="289" y="0" type="line"/>
      <point x="355" y="0" type="line"/>
      <point x="355" y="335" type="line"/>
      <point x="289" y="335" type="line"/>
      <point x="289" y="203" type="line"/>
      <point x="111" y="203" type="line"/>
      <point x="111" y="335" type="line"/>
      <point x="45" y="335" type="line"/>
    </contour>
  </outline>
</glyph>
<glyph name="K.half" format="2">
  <advance width="400"/>
  <outline>
    <contour>
      <point x="45" y="0" type="line"/>
      <point x="111" y="0" type="line"/>
      <point x="111" y="143" type="line"/>
      <point x="190" y="143" type="line"/>
      <point x="292" y="0" type="line"/>
      <point x="370" y="0" type="line"/>
      <point x="247" y="174" type="line"/>
      <point x="360" y="335" type="line"/>
      <point x="286" y="335" type="line"/>
      <point x="190" y="201" type="line"/>
      <point x="111" y="201" type="line"/>
      <point x="111" y="335" type="line"/>
      <point x="45" y="335" type="line"/>
    </contour>
  </outline>
</glyph>
<glyph name="X.half" format="2">
  <advance width="400"/>
  <outline>
    <contour>
      <point x="30" y="0" type="line"/>
      <point x="107" y="0" type="line"/>
      <point x="173" y="86" type="line" smooth="yes"/>
      <point x="190" y="108"/>
      <point x="190" y="123"/>
      <point x="197" y="141" type="curve"/>
      <point x="205" y="123"/>
      <point x="209" y="107"/>
      <point x="226" y="85" type="curve" smooth="yes"/>
      <point x="291" y="0" type="line"/>
      <point x="370" y="0" type="line"/>
      <point x="245" y="167" type="line"/>
      <point x="370" y="335" type="line"/>
      <point x="293" y="335" type="line"/>
      <point x="229" y="249" type="line" smooth="yes"/>
      <point x="213" y="227"/>
      <point x="209" y="214"/>
      <point x="203" y="195" type="curve"/>
      <point x="193" y="213"/>
      <point x="192" y="227"/>
      <point x="175" y="249" type="curve" smooth="yes"/>
      <point x="109" y="335" type="line"/>
      <point x="31" y="335" type="line"/>
      <point x="156" y="169" type="line"/>
    </contour>
  </outline>
</glyph>
<glyph name="acutecomb.case" format="2">
  <anchor x="-310" y="730" name="_top"/>
  <anchor x="-267" y="950" name="top"/>
  <outline>
    <contour>
      <point x="-368" y="810" type="line"/>
      <point x="-276" y="810" type="line"/>
      <point x="-165" y="950" type="line"/>
      <point x="-262" y="950" type="line"/>
    </contour>
  </outline>
</glyph>
<glyph name="bar_greater.liga" format="2">
  <advance width="600"/>
  <outline>
    <contour>
      <point x="-325" y="-85" type="line"/>
      <point x="-235" y="-85" type="line"/>
      <point x="360" y="280" type="line"/>
      <point x="360" y="380" type="line"/>
      <point x="-235" y="750" type="line"/>
      <point x="-325" y="750" type="line"/>
    </contour>
    <contour>
      <point x="-235" y="19" type="line"/>
      <point x="-235" y="643" type="line"/>
      <point x="210" y="369" type="line" smooth="yes"/>
      <point x="239" y="351"/>
      <point x="268" y="335"/>
      <point x="281" y="328" type="curve"/>
      <point x="268" y="322"/>
      <point x="239" y="307"/>
      <point x="210" y="289" type="curve" smooth="yes"/>
    </contour>
  </outline>
</glyph>
<glyph name="brevecomb-cy" format="2">
  <anchor x="-300" y="550" name="_top"/>
  <outline>
    <contour>
      <point x="-300" y="640" type="curve" smooth="yes"/>
      <point x="-204" y="640"/>
      <point x="-140" y="698"/>
      <point x="-140" y="785" type="curve"/>
      <point x="-211" y="785" type="line"/>
      <point x="-211" y="733"/>
      <point x="-247" y="698"/>
      <point x="-301" y="698" type="curve" smooth="yes"/>
      <point x="-354" y="698"/>
      <point x="-389" y="733"/>
      <point x="-389" y="785" type="curve"/>
      <point x="-460" y="785" type="line"/>
      <point x="-460" y="698"/>
      <point x="-396" y="640"/>
    </contour>
  </outline>
</glyph>
<glyph name="circumflexcomb_acutecomb" format="2">
  <anchor x="-300" y="550" name="_top"/>
  <anchor x="-228" y="900" name="top"/>
  <outline>
    <contour>
      <point x="-190" y="760" type="line"/>
      <point x="-95" y="760" type="line"/>
      <point x="25" y="900" type="line"/>
      <point x="-75" y="900" type="line"/>
    </contour>
    <contour>
      <point x="-480" y="645" type="line"/>
      <point x="-381" y="645" type="line"/>
      <point x="-300" y="723" type="line"/>
      <point x="-220" y="645" type="line"/>
      <point x="-119" y="645" type="line"/>
      <point x="-258" y="785" type="line"/>
      <point x="-342" y="785" type="line"/>
    </contour>
  </outline>
</glyph>
<glyph name="circumflexcomb_gravecomb" format="2">
  <anchor x="-300" y="550" name="_top"/>
  <anchor x="-268" y="900" name="top"/>
  <outline>
    <contour>
      <point x="-150" y="760" type="line"/>
      <point x="-55" y="760" type="line"/>
      <point x="-180" y="900" type="line"/>
      <point x="-280" y="900" type="line"/>
    </contour>
    <contour>
      <point x="-480" y="645" type="line"/>
      <point x="-381" y="645" type="line"/>
      <point x="-300" y="723" type="line"/>
      <point x="-220" y="645" type="line"/>
      <point x="-119" y="645" type="line"/>
      <point x="-258" y="785" type="line"/>
      <point x="-342" y="785" type="line"/>
    </contour>
  </outline>
</glyph>
<glyph name="circumflexcomb_hookabovecomb.case" format="2">
  <anchor x="-300" y="730" name="_top"/>
  <anchor x="-265" y="1020" name="top"/>
  <outline>
    <contour>
      <point x="-180" y="880" type="line"/>
      <point x="-102" y="880" type="line"/>
      <point x="-66" y="914" type="line" smooth="yes"/>
      <point x="-56" y="924"/>
      <point x="-50" y="940"/>
      <point x="-50" y="958" type="curve" smooth="yes"/>
      <point x="-50" y="995"/>
      <point x="-77" y="1020"/>
      <point x="-120" y="1020" type="curve" smooth="yes"/>
      <point x="-205" y="1020" type="line"/>
      <point x="-205" y="962" type="line"/>
      <point x="-139" y="962" type="line" smooth="yes"/>
      <point x="-130" y="962"/>
      <point x="-124" y="955"/>
      <point x="-124" y="946" type="curve" smooth="yes"/>
      <point x="-124" y="939"/>
      <point x="-127" y="932"/>
      <point x="-132" y="927" type="curve" smooth="yes"/>
    </contour>
    <contour>
      <point x="-480" y="780" type="line"/>
      <point x="-381" y="780" type="line"/>
      <point x="-300" y="858" type="line"/>
      <point x="-220" y="780" type="line"/>
      <point x="-119" y="780" type="line"/>
      <point x="-258" y="920" type="line"/>
      <point x="-342" y="920" type="line"/>
    </contour>
  </outline>
</glyph>
<glyph name="greater_greater_equal.liga" format="2">
  <advance width="600"/>
  <outline>
    <contour>
      <point x="-801" y="35" type="line"/>
      <point x="-696" y="35" type="line"/>
      <point x="-590" y="170" type="line"/>
      <point x="515" y="170" type="line"/>
      <point x="515" y="250" type="line"/>
      <point x="-527" y="250" type="line"/>
      <point x="-464" y="330" type="line"/>
      <point x="-527" y="410" type="line"/>
      <point x="515" y="410" type="line"/>
      <point x="515" y="490" type="line"/>
      <point x="-589" y="490" type="line"/>
      <point x="-695" y="625" type="line"/>
      <point x="-801" y="625" type="line"/>
      <point x="-566" y="329" type="line"/>
    </contour>
    <contour>
      <point x="-1101" y="35" type="line"/>
      <point x="-996" y="35" type="line"/>
      <point x="-764" y="330" type="line"/>
      <point x="-995" y="625" type="line"/>
      <point x="-1101" y="625" type="line"/>
      <point x="-866" y="329" type="line"/>
    </contour>
  </outline>
</glyph>
<glyph name="greater_greater_hyphen.liga" format="2">
  <advance width="600"/>
  <outline>
    <contour>
      <point x="-801" y="35" type="line"/>
      <point x="-696" y="35" type="line"/>
      <point x="-495" y="290" type="line"/>
      <point x="515" y="290" type="line"/>
      <point x="515" y="370" type="line"/>
      <point x="-495" y="370" type="line"/>
      <point x="-695" y="625" type="line"/>
      <point x="-801" y="625" type="line"/>
      <point x="-566" y="329" type="line"/>
    </contour>
    <contour>
      <point x="-1101" y="35" type="line"/>
      <point x="-996" y="35" type="line"/>
      <point x="-764" y="330" type="line"/>
      <point x="-995" y="625" type="line"/>
      <point x="-1101" y="625" type="line"/>
      <point x="-866" y="329" type="line"/>
    </contour>
  </outline>
</glyph>
<glyph name="horncomb.case" format="2">
  <anchor x="-300" y="730" name="_horn"/>
  <anchor x="-249" y="730" name="_topright"/>
  <anchor x="-70" y="840" name="topright"/>
  <outline>
    <contour>
      <point x="-229" y="665" type="line"/>
      <point x="-195" y="665" type="line" smooth="yes"/>
      <point x="-131" y="665"/>
      <point x="-90" y="702"/>
      <point x="-90" y="760" type="curve" smooth="yes"/>
      <point x="-90" y="840" type="line"/>
      <point x="-165" y="840" type="line"/>
      <point x="-165" y="765" type="line" smooth="yes"/>
      <point x="-165" y="744"/>
      <point x="-179" y="730"/>
      <point x="-200" y="730" type="curve" smooth="yes"/>
      <point x="-229" y="730" type="line"/>
    </contour>
  </outline>
</glyph>
<glyph name="hungarumlautcomb.case" format="2">
  <anchor x="-300" y="730" name="_top"/>
  <anchor x="-263" y="950" name="top"/>
  <outline>
    <contour>
      <point x="-274" y="810" type="line"/>
      <point x="-187" y="810" type="line"/>
      <point x="-72" y="950" type="line"/>
      <point x="-164" y="950" type="line"/>
    </contour>
    <contour>
      <point x="-453" y="810" type="line"/>
      <point x="-366" y="810" type="line"/>
      <point x="-251" y="950" type="line"/>
      <point x="-343" y="950" type="line"/>
    </contour>
  </outline>
</glyph>
<glyph name="hyphen_hyphen_braceright_braceright.liga" format="2">
  <advance width="600"/>
  <outline>
    <contour>
      <point x="-1715" y="290" type="line"/>
      <point x="-230" y="290" type="line"/>
      <point x="-230" y="370" type="line"/>
      <point x="-1715" y="370" type="line"/>
    </contour>
    <component base="braceright" xOffset="-555" yOffset="-30"/>
    <component base="braceright" xOffset="-25" yOffset="-30"/>
  </outline>
</glyph>
<glyph name="less_equal_equal.liga" format="2">
  <advance width="600"/>
  <outline>
    <contour>
      <point x="-894" y="35" type="line"/>
      <point x="-788" y="35" type="line"/>
      <point x="-895" y="170" type="line"/>
      <point x="515" y="170" type="line"/>
      <point x="515" y="250" type="line"/>
      <point x="-958" y="250" type="line"/>
      <point x="-1020" y="331" type="line"/>
      <point x="-959" y="410" type="line"/>
      <point x="515" y="410" type="line"/>
      <point x="515" y="490" type="line"/>
      <point x="-895" y="490" type="line"/>
      <point x="-788" y="625" type="line"/>
      <point x="-893" y="625" type="line"/>
      <point x="-1125" y="330" type="line"/>
    </contour>
  </outline>
</glyph>
<glyph name="less_equal_equal_greater.liga" format="2">
  <advance width="600"/>
  <outline>
    <contour>
      <point x="-1494" y="35" type="line"/>
      <point x="-1388" y="35" type="line"/>
      <point x="-1495" y="170" type="line"/>
      <point x="295" y="170" type="line"/>
      <point x="188" y="35" type="line"/>
      <point x="293" y="35" type="line"/>
      <point x="525" y="330" type="line"/>
      <point x="294" y="625" type="line"/>
      <point x="188" y="625" type="line"/>
      <point x="295" y="490" type="line"/>
      <point x="-1495" y="490" type="line"/>
      <point x="-1388" y="625" type="line"/>
      <point x="-1493" y="625" type="line"/>
      <point x="-1725" y="330" type="line"/>
    </contour>
    <contour>
      <point x="-1558" y="250" type="line"/>
      <point x="-1620" y="331" type="line"/>
      <point x="-1559" y="410" type="line"/>
      <point x="358" y="410" type="line"/>
      <point x="424" y="329" type="line"/>
      <point x="359" y="250" type="line"/>
    </contour>
  </outline>
</glyph>
<glyph name="less_hyphen.liga" format="2">
  <advance width="600"/>
  <outline>
    <contour>
      <point x="-294" y="35" type="line"/>
      <point x="-188" y="35" type="line"/>
      <point x="-374" y="270" type="line" smooth="yes"/>
      <point x="-380" y="277"/>
      <point x="-385" y="284"/>
      <point x="-390" y="290" type="curve"/>
      <point x="500" y="290" type="line"/>
      <point x="500" y="370" type="line"/>
      <point x="-391" y="370" type="line"/>
      <point x="-387" y="375"/>
      <point x="-382" y="381"/>
      <point x="-378" y="386" type="curve"/>
      <point x="-188" y="625" type="line"/>
      <point x="-293" y="625" type="line"/>
      <point x="-525" y="330" type="line"/>
    </contour>
  </outline>
</glyph>
<glyph name="macroncomb.case" format="2">
  <anchor x="-300" y="730" name="_top"/>
  <anchor x="-300" y="915" name="top"/>
  <outline>
    <contour>
      <point x="-460" y="840" type="line"/>
      <point x="-140" y="840" type="line"/>
      <point x="-140" y="915" type="line"/>
      <point x="-460" y="915" type="line"/>
    </contour>
  </outline>
</glyph>
<glyph name="numbersign_numbersign_numbersign_numbersign.liga" format="2">
  <advance width="600"/>
  <outline>
    <contour>
      <point x="-1687" y="0" type="line"/>
      <point x="-1617" y="0" type="line"/>
      <point x="-1578" y="210" type="line"/>
      <point x="-1418" y="210" type="line"/>
      <point x="-1457" y="0" type="line"/>
      <point x="-1387" y="0" type="line"/>
      <point x="-1348" y="210" type="line"/>
      <point x="-1068" y="210" type="line"/>
      <point x="-1107" y="0" type="line"/>
      <point x="-1037" y="0" type="line"/>
      <point x="-998" y="210" type="line"/>
      <point x="-838" y="210" type="line"/>
      <point x="-877" y="0" type="line"/>
      <point x="-807" y="0" type="line"/>
      <point x="-768" y="210" type="line"/>
      <point x="-488" y="210" type="line"/>
      <point x="-527" y="0" type="line"/>
      <point x="-457" y="0" type="line"/>
      <point x="-418" y="210" type="line"/>
      <point x="-258" y="210" type="line"/>
      <point x="-297" y="0" type="line"/>
      <point x="-227" y="0" type="line"/>
      <point x="-188" y="210" type="line"/>
      <point x="92" y="210" type="line"/>
      <point x="53" y="0" type="line"/>
      <point x="123" y="0" type="line"/>
      <point x="162" y="210" type="line"/>
      <point x="322" y="210" type="line"/>
      <point x="283" y="0" type="line"/>
      <point x="353" y="0" type="line"/>
      <point x="392" y="210" type="line"/>
      <point x="500" y="210" type="line"/>
      <point x="500" y="275" type="line"/>
      <point x="403" y="275" type="line"/>
      <point x="437" y="455" type="line"/>
      <point x="535" y="455" type="line"/>
      <point x="535" y="520" type="line"/>
      <point x="448" y="520" type="line"/>
      <point x="487" y="730" type="line"/>
      <point x="417" y="730" type="line"/>
      <point x="378" y="520" type="line"/>
      <point x="218" y="520" type="line"/>
      <point x="257" y="730" type="line"/>
      <point x="187" y="730" type="line"/>
      <point x="148" y="520" type="line"/>
      <point x="-132" y="520" type="line"/>
      <point x="-93" y="730" type="line"/>
      <point x="-163" y="730" type="line"/>
      <point x="-202" y="520" type="line"/>
      <point x="-362" y="520" type="line"/>
      <point x="-323" y="730" type="line"/>
      <point x="-393" y="730" type="line"/>
      <point x="-432" y="520" type="line"/>
      <point x="-712" y="520" type="line"/>
      <point x="-673" y="730" type="line"/>
      <point x="-743" y="730" type="line"/>
      <point x="-782" y="520" type="line"/>
      <point x="-942" y="520" type="line"/>
      <point x="-903" y="730" type="line"/>
      <point x="-973" y="730" type="line"/>
      <point x="-1012" y="520" type="line"/>
      <point x="-1292" y="520" type="line"/>
      <point x="-1253" y="730" type="line"/>
      <point x="-1323" y="730" type="line"/>
      <point x="-1362" y="520" type="line"/>
      <point x="-1522" y="520" type="line"/>
      <point x="-1483" y="730" type="line"/>
      <point x="-1553" y="730" type="line"/>
      <point x="-1592" y="520" type="line"/>
      <point x="-1700" y="520" type="line"/>
      <point x="-1700" y="455" type="line"/>
      <point x="-1603" y="455" type="line"/>
      <point x="-1637" y="275" type="line"/>
      <point x="-1735" y="275" type="line"/>
      <point x="-1735" y="210" type="line"/>
      <point x="-1648" y="210" type="line"/>
    </contour>
    <contour>
      <point x="-1567" y="275" type="line"/>
      <point x="-1533" y="455" type="line"/>
      <point x="-1373" y="455" type="line"/>
      <point x="-1407" y="275" type="line"/>
    </contour>
    <contour>
      <point x="-1337" y="275" type="line"/>
      <point x="-1303" y="455" type="line"/>
      <point x="-1023" y="455" type="line"/>
      <point x="-1057" y="275" type="line"/>
    </contour>
    <contour>
      <point x="-987" y="275" type="line"/>
      <point x="-953" y="455" type="line"/>
      <point x="-793" y="455" type="line"/>
      <point x="-827" y="275" type="line"/>
    </contour>
    <contour>
      <point x="-757" y="275" type="line"/>
      <point x="-723" y="455" type="line"/>
      <point x="-443" y="455" type="line"/>
      <point x="-477" y="275" type="line"/>
    </contour>
    <contour>
      <point x="-407" y="275" type="line"/>
      <point x="-373" y="455" type="line"/>
      <point x="-213" y="455" type="line"/>
      <point x="-247" y="275" type="line"/>
    </contour>
    <contour>
      <point x="-177" y="275" type="line"/>
      <point x="-143" y="455" type="line"/>
      <point x="137" y="455" type="line"/>
      <point x="103" y="275" type="line"/>
    </contour>
    <contour>
      <point x="173" y="275" type="line"/>
      <point x="207" y="455" type="line"/>
      <point x="367" y="455" type="line"/>
      <point x="333" y="275" type="line"/>
    </contour>
  </outline>
</glyph>
<glyph name="one.half" format="2">
  <advance width="400"/>
  <outline>
    <contour>
      <point x="59" y="0" type="line"/>
      <point x="360" y="0" type="line"/>
      <point x="360" y="60" type="line"/>
      <point x="256" y="60" type="line"/>
      <point x="256" y="335" type="line"/>
      <point x="165" y="335" type="line"/>
      <point x="68" y="264" type="line"/>
      <point x="68" y="189" type="line"/>
      <point x="190" y="276" type="line"/>
      <point x="190" y="60" type="line"/>
      <point x="59" y="60" type="line"/>
    </contour>
  </outline>
</glyph>
<glyph name="ringcomb.case" format="2">
  <anchor x="-300" y="730" name="_top"/>
  <anchor x="-300" y="994" name="top"/>
  <outline>
    <contour>
      <point x="-300" y="766" type="curve" smooth="yes"/>
      <point x="-228" y="766"/>
      <point x="-180" y="812"/>
      <point x="-180" y="880" type="curve" smooth="yes"/>
      <point x="-180" y="948"/>
      <point x="-228" y="994"/>
      <point x="-300" y="994" type="curve" smooth="yes"/>
      <point x="-372" y="994"/>
      <point x="-420" y="948"/>
      <point x="-420" y="880" type="curve" smooth="yes"/>
      <point x="-420" y="812"/>
      <point x="-372" y="766"/>
    </contour>
    <contour>
      <point x="-300" y="819" type="curve" smooth="yes"/>
      <point x="-336" y="819"/>
      <point x="-360" y="843"/>
      <point x="-360" y="880" type="curve" smooth="yes"/>
      <point x="-360" y="917"/>
      <point x="-336" y="942"/>
      <point x="-300" y="942" type="curve" smooth="yes"/>
      <point x="-264" y="942"/>
      <point x="-240" y="917"/>
      <point x="-240" y="880" type="curve" smooth="yes"/>
      <point x="-240" y="843"/>
      <point x="-264" y="819"/>
    </contour>
  </outline>
</glyph>
